<svg xmlns="http://www.w3.org/2000/svg" xmlns:xlink="http://www.w3.org/1999/xlink" version="1.1" x="0px" y="0px" width="500" height="421" viewBox="0 0 500 421" enable-background="new 0 0 500 421" xml:space="preserve">
<g id="BACKGROUND">
</g>
<g id="OBJECTS">
</g>
<g id="DESIGNED_BY_FREEPIK">
	<g>
		<g>
			<path fill="#CCE9FF" d="M363.845,229.074v-68.304h-19.303v78.052h-8.475v-94.347h-0.021v-12.15h10.764v9.048h21.41v-9.163     c0.033-0.021,0.066-0.038,0.094-0.063l0.002,0.001c0.053,0,0.107-0.013,0.156-0.038c0.166-0.087,0.229-0.291,0.143-0.456     l-0.119-0.228c-0.016-0.045-0.041-0.083-0.064-0.123l-5.648-10.791h-7.004l-22.463-9.481c0.012-0.072,0.021-0.144,0.021-0.219     c0-0.751-0.607-1.359-1.359-1.359s-1.361,0.608-1.361,1.359c0,0.026,0.008,0.05,0.008,0.076l-48.693,14.848h-14.363l-5.24,5.238     h-0.213c-0.371,0-0.674,0.303-0.674,0.676s0.303,0.676,0.674,0.676h5.25h47.271v16.731h8.225v89.766h-5.451h-21.398v-41.316     h-24.412V178.69H254.94v19.105h-28.025v27.33h-22.771v-39.765h-26.984v-24.591h-8.025h-3.619h-7.656v35.566h-27.135v32.656     h-21.396v56.838h1.355h193.791h11.406h39.893h34.9v-56.757H363.845z M286.597,126.41v4.136l-5.117-4.136H286.597z      M331.778,113.238l3.572,17.735h-10.289l-0.018-0.018L331.778,113.238z M323.593,130.974h-4.42l-5.646-4.563h6.016l4.191,4.193     L323.593,130.974z M268.042,126.778l5.191,4.195h-5.191V126.778z M268.659,126.41h5.119v4.137L268.659,126.41z M274.452,130.974     v-4.195l5.189,4.195H274.452z M275.069,126.41h5.117v4.136L275.069,126.41z M280.862,130.974v-4.195l5.189,4.195H280.862z      M287.271,130.974v-4.195l5.191,4.195H287.271z M287.888,126.41h5.119v4.137L287.888,126.41z M293.681,130.974v-4.195     l5.189,4.195H293.681z M294.298,126.41h5.117v4.137L294.298,126.41z M300.091,130.974v-4.195l5.189,4.195H300.091z      M300.708,126.41h5.117v4.136L300.708,126.41z M306.499,130.974v-4.195l5.191,4.195H306.499z M307.116,126.41h5.119v4.137     L307.116,126.41z M312.909,130.974v-4.195l5.189,4.195H312.909z M356.745,121.187v9.109l-7.719-9.109H356.745z M348.774,121.933     l7.66,9.041h-7.66V121.933z M357.421,130.974v-8.838l5.842,8.838H357.421z M348.101,130.974h-4.387l4.387-8.629V130.974z      M367.497,130.974h-3.426l-6.469-9.787h4.771L367.497,130.974z M354.044,120.512h-5.77l-5.318,10.462h-6.248     c-0.002-0.033,0.006-0.066,0-0.101l-3.838-19.043c0.064-0.055,0.121-0.115,0.172-0.181L354.044,120.512z M330.827,111.531     c0.031,0.05,0.066,0.094,0.104,0.139l-6.934,18.241l-4.176-4.176h-35.576L330.827,111.531z M263.28,130.974l4.088-4.085v4.085     H263.28z M331.466,238.822l3.252-3.514v3.514H331.466z M324.212,173.159h9.281l-9.281,10.024V173.159z M325.31,208.351     l9.408-10.16v10.16H325.31z M325.31,196.156l9.408-10.161v10.161H325.31z M325.31,183.983l9.408-10.161v10.161H325.31z      M334.718,171.81h-9.408l9.408-10.16V171.81z M324.212,185.333h9.281l-9.281,10.023V185.333z M324.212,197.506h9.301     l-9.301,10.046V197.506z M324.212,209.702h9.279l-9.279,10.022V209.702z M334.718,210.364v10.16h-9.408L334.718,210.364z      M334.718,159.637h-9.408l9.408-10.161V159.637z M333.491,160.986l-9.279,10.023v-10.023H333.491z M324.212,221.874h9.559     l-9.559,10.323V221.874z M334.718,222.836v10.161h-9.408L334.718,222.836z M333.267,149.057l-9.055,9.78v-9.78H333.267z      M324.212,234.347h9.557l-4.145,4.476h-5.412V234.347z"/>
			<path fill="#CCE9FF" d="M264.89,134.8c0,1.251,0.932,2.274,2.137,2.441v24.267c-1.012,0.163-1.787,1.033-1.787,2.091     c0,1.174,0.951,2.126,2.125,2.126s2.127-0.952,2.127-2.126c0-1.058-0.777-1.928-1.789-2.091v-24.267     c1.205-0.167,2.139-1.19,2.139-2.441c0-1.367-1.109-2.475-2.477-2.475S264.89,133.433,264.89,134.8z"/>
		</g>
		<g>
			<g>
				<path fill="#F2F2F2" d="M230.718,296.404c0,0-24.529-19.63-40.09-19.63c-16.201,0.001-40.088,19.63-40.088,19.63H230.718z"/>
			</g>
			<path fill="#D3D3D3" d="M247.675,296.404c0,0-27.604-29.555-36.545-28.194c-8.941,1.362-38.488,28.194-38.488,28.194H247.675z"/>
			<g>
				<g>
					<rect x="222.571" y="267.173" fill="#F2F2F2" width="4.281" height="35.279"/>
				</g>
				<g>
					<rect x="261.405" y="267.173" fill="#F2F2F2" width="4.283" height="35.279"/>
				</g>
				<g>
					<g>
						<rect x="215.261" y="254.261" fill="#FFBE55" width="58.162" height="12.912"/>
					</g>
					<g>
						<polygon fill="#0B4870" points="215.261,266.286 227.286,254.261 221.634,254.261 215.261,260.636       "/>
						<polygon fill="#0B4870" points="234.618,254.261 221.708,267.173 227.356,267.173 240.269,254.261       "/>
						<polygon fill="#0B4870" points="247.603,254.261 234.69,267.173 240.341,267.173 253.253,254.261       "/>
						<polygon fill="#0B4870" points="260.585,254.261 247.675,267.173 253.325,267.173 266.235,254.261       "/>
						<polygon fill="#0B4870" points="273.423,254.409 260.657,267.173 266.308,267.173 273.423,260.06       "/>
					</g>
				</g>
				<g>
					<g>
						<rect x="215.261" y="277.979" fill="#FFBE55" width="58.162" height="12.911"/>
					</g>
					<g>
						<polygon fill="#0B4870" points="215.261,290.004 227.286,277.979 221.634,277.979 215.261,284.354       "/>
						<polygon fill="#0B4870" points="234.618,277.979 221.708,290.891 227.356,290.891 240.269,277.979       "/>
						<polygon fill="#0B4870" points="247.603,277.979 234.69,290.891 240.341,290.891 253.253,277.979       "/>
						<polygon fill="#0B4870" points="260.585,277.979 247.675,290.891 253.325,290.891 266.235,277.979       "/>
						<polygon fill="#0B4870" points="273.423,278.127 260.657,290.891 266.308,290.891 273.423,283.777       "/>
					</g>
				</g>
			</g>
			<g>
				<path fill="#D3D3D3" d="M305.938,309.303c0,0-16.119-12.898-26.344-12.898c-10.646,0.001-26.342,12.898-26.342,12.898H305.938z"/>
			</g>
			<g>
				<path fill="#FFBE55" d="M167.212,280.419l-9.877,29.172c0,2.23,23.693,2.263,23.691,0l-9.879-29.172      C170.511,278.537,167.851,278.537,167.212,280.419z"/>
				<path fill="#F7F7F7" d="M164.595,288.149l-1.988,5.869c4.387,0.268,8.76,0.268,13.146,0l-1.988-5.869      C170.706,288.287,167.653,288.287,164.595,288.149z"/>
				<path fill="#F7F7F7" d="M160.974,298.839l-1.969,5.818c6.803,0.642,13.549,0.642,20.35,0l-1.969-5.818      C171.901,299.282,166.458,299.282,160.974,298.839z"/>
				<path fill="#FFBE55" d="M184.677,311.548h-30.992l0,0c0-1.256,1.018-2.274,2.275-2.274h26.441      C183.657,309.273,184.677,310.292,184.677,311.548L184.677,311.548z"/>
			</g>
			<g>
				<path fill="#FFBE55" d="M331.997,280.419l-9.879,29.172c0.002,2.23,23.693,2.263,23.691,0l-9.877-29.172      C335.296,278.537,332.634,278.537,331.997,280.419z"/>
				<path fill="#F7F7F7" d="M329.378,288.149l-1.986,5.869c4.387,0.268,8.76,0.268,13.145,0l-1.986-5.869      C335.491,288.287,332.438,288.287,329.378,288.149z"/>
				<path fill="#F7F7F7" d="M325.759,298.839l-1.969,5.818c6.801,0.642,13.549,0.642,20.35,0l-1.969-5.818      C336.687,299.282,331.243,299.282,325.759,298.839z"/>
				<path fill="#FFBE55" d="M349.46,311.548h-30.99l0,0c0-1.256,1.018-2.274,2.275-2.274h26.441      C348.442,309.273,349.46,310.292,349.46,311.548L349.46,311.548z"/>
			</g>
			<rect x="189.241" y="239.814" fill="#F2F2F2" width="4.018" height="63.039"/>
			<g>
				<path fill="#FFBE55" d="M172.825,227.964c-1.893-1.894-1.893-4.965,0-6.857l14.996-14.995c1.893-1.894,4.965-1.894,6.857,0      l14.994,14.995c1.895,1.893,1.895,4.964,0,6.857l-14.994,14.995c-1.893,1.894-4.965,1.894-6.857,0L172.825,227.964z"/>
				<g>
					<path fill="#0B4870" d="M191.251,241.671c-1.236,0-2.398-0.481-3.273-1.355l-12.508-12.51c-1.805-1.803-1.805-4.739,0-6.542       l12.508-12.509c0.875-0.874,2.037-1.355,3.271-1.355c1.236,0,2.398,0.481,3.271,1.355l12.51,12.509       c0.873,0.874,1.355,2.035,1.355,3.271s-0.482,2.397-1.355,3.271l-12.51,12.51C193.647,241.189,192.485,241.671,191.251,241.671       z M191.249,208.563c-0.924,0-1.793,0.36-2.449,1.015l-12.508,12.508c-1.35,1.351-1.35,3.548,0,4.897l12.508,12.509       c0.656,0.654,1.525,1.015,2.451,1.015c0.924,0,1.795-0.36,2.447-1.015l12.508-12.509c0.654-0.653,1.016-1.523,1.016-2.448       s-0.361-1.795-1.016-2.448l-12.508-12.509C193.044,208.924,192.175,208.563,191.249,208.563z"/>
				</g>
				<g>
					<g>
						<path fill="#0B4870" d="M185.013,222.339c-0.822-0.821-1.025-2.026-0.609-3.037l2.16,2.161l1.527-1.526l-2.162-2.162        c1.012-0.414,2.217-0.211,3.037,0.611c0.842,0.84,1.033,2.084,0.58,3.109l8.607,8.606c0.391,0.393,0.391,1.03,0,1.423l0,0        c-0.395,0.393-1.031,0.393-1.424,0l-8.607-8.606C187.097,223.372,185.854,223.18,185.013,222.339z"/>
					</g>
					<g>
						<g>
							<path fill="#0B4870" d="M184.349,231.524L184.349,231.524c-0.393-0.393-0.393-1.029,0-1.423l10.594-10.594l1.422,1.422         l-10.594,10.595C185.378,231.917,184.741,231.917,184.349,231.524z"/>
						</g>
						<g>
							<polygon fill="#0B4870" points="196.976,223.824 192.54,219.388 194.679,217.251 198.149,220.723        "/>
						</g>
					</g>
				</g>
			</g>
		</g>
	</g>
</g>
</svg>